<svg xmlns="http://www.w3.org/2000/svg" width="24" height="24" viewBox="0 0 24 24" fill="none">
  <path d="M17.5171 12.6367C17.5016 10.7266 19.0765 9.75781 19.1699 9.70312C18.1941 8.30859 16.6582 8.12109 16.1269 8.10547C14.8144 7.97266 13.5488 8.88281 12.8808 8.88281C12.1972 8.88281 11.1582 8.12109 10.0566 8.14844C8.63731 8.17578 7.32372 8.96484 6.61778 10.2188C5.15184 12.7773 6.24559 16.5469 7.65184 18.4219C8.35778 19.3398 9.17528 20.3672 10.2535 20.3242C11.2996 20.2812 11.7074 19.6641 12.9652 19.6641C14.2074 19.6641 14.5918 20.3242 15.6855 20.2969C16.8105 20.2695 17.5171 19.3594 18.1941 18.4297C19.0116 17.3672 19.3488 16.3242 19.3644 16.2812C19.3332 16.2695 17.5327 15.5547 17.5171 12.6367Z" fill="white"/>
  <path d="M15.7324 6.875C16.3008 6.17969 16.6926 5.22656 16.5992 4.25781C15.7637 4.29688 14.7168 4.82031 14.1328 5.5C13.6094 6.09375 13.1406 7.07812 13.2496 8.01562C14.1797 8.08594 15.1484 7.57031 15.7324 6.875Z" fill="white"/>
</svg> 